<svg height="480pt" viewBox="-31 0 479 480" width="480pt" xmlns="http://www.w3.org/2000/svg"><path d="m8.5 8h400v384h-400zm0 0" fill="#57b7eb"/><path d="m72.5 128v-120h-64v384h400v-72h-144c-106.039062 0-192-85.960938-192-192zm0 0" fill="#4891d3"/><path d="m8.5 8h400v64h-400zm0 0" fill="#c4f236"/><path d="m8.5 8h64v64h-64zm0 0" fill="#a1d51c"/><path d="m40.5 200h184v64h-184zm0 0" fill="#fcbc04"/><path d="m184.5 240c.011719 8.304688 1.871094 16.503906 5.441406 24h34.558594v-64h-23.121094c-10.777344 10.519531-16.859375 24.9375-16.878906 40zm0 0" fill="#e59730"/><path d="m86.5 200h-46v64h88.480469c-18.328125-18.253906-32.777344-40.023438-42.480469-64zm0 0" fill="#e59730"/><path d="m320.5 232c0 30.929688-25.070312 56-56 56s-56-25.070312-56-56 25.070312-56 56-56 56 25.070312 56 56zm0 0" fill="#c4f236"/><path d="m288.5 256c-30.929688 0-56-25.070312-56-56 .015625-5.195312.742188-10.363281 2.160156-15.359375-21.144531 13.296875-30.921875 38.992187-23.972656 62.984375s28.949219 40.480469 53.925781 40.417969c24.976563-.0625 46.894531-16.65625 53.726563-40.683594-8.933594 5.636719-19.277344 8.632813-29.839844 8.640625zm0 0" fill="#a1d51c"/><path d="m40.5 296h104v32h-104zm0 0" fill="#7ab92d"/><path d="m240.5 424h144v48h-144zm0 0" fill="#4891d3"/><path d="m360.5 296c-8.835938 0-16 7.164062-16 16v-16c0-8.835938-7.164062-16-16-16s-16 7.164062-16 16c0-8.835938-7.164062-16-16-16s-16 7.164062-16 16v-48c0-8.835938-7.164062-16-16-16s-16 7.164062-16 16v86.960938l-24-24c-3.972656-4.367188-10.027344-6.195313-15.753906-4.75-5.722656 1.445312-10.1875 5.925781-11.609375 11.652343-1.425781 5.730469.421875 11.78125 4.804687 15.738281l46.558594 46.636719v11.761719l16 32h96l16-32v-80c0-8.835938-7.164062-16-16-16zm0 0" fill="#fcbc04"/><path d="m264.5 312h-16v22.960938l-24-24c-3.972656-4.367188-10.027344-6.195313-15.753906-4.75-5.722656 1.445312-10.1875 5.925781-11.609375 11.652343-1.425781 5.730469.421875 11.78125 4.804687 15.738281l46.558594 46.636719v11.761719l16 32h96l16-32h-32c-44.183594 0-80-35.816406-80-80zm0 0" fill="#e59730"/><path d="m264.5 424h120v24h-96c-13.253906 0-24-10.746094-24-24zm0 0" fill="#57b7eb"/><path d="m272.5 234.238281c-3.332031-2.167969-7.371094-2.972656-11.28125-2.238281-7.726562 2.019531-13.015625 9.136719-12.71875 17.121094v86.878906c8.835938 0 16-7.164062 16-16v-72c.035156-5.683594 3.078125-10.917969 8-13.761719zm0 0" fill="#e59730"/><path d="m304.5 282.238281c-3.332031-2.167969-7.371094-2.972656-11.28125-2.238281-7.726562 2.019531-13.015625 9.136719-12.71875 17.121094v22.878906c8.835938 0 16-7.164062 16-16v-8c.035156-5.683594 3.078125-10.917969 8-13.761719zm0 0" fill="#e59730"/><path d="m336.5 282.238281c-3.332031-2.167969-7.371094-2.972656-11.28125-2.238281-7.726562 2.019531-13.015625 9.136719-12.71875 17.121094v22.878906c8.835938 0 16-7.164062 16-16v-8c.035156-5.683594 3.078125-10.917969 8-13.761719zm0 0" fill="#e59730"/><path d="m368.5 298.238281c-3.332031-2.167969-7.371094-2.972656-11.28125-2.238281-7.726562 2.019531-13.015625 9.136719-12.71875 17.121094v14.878906c8.835938 0 16-7.164062 16-16 .035156-5.683594 3.078125-10.917969 8-13.761719zm0 0" fill="#e59730"/><g fill="#39519d"><path d="m384.5 416h-115.039062l-12.960938-25.921875v-9.839844c.011719-2.125-.824219-4.167969-2.320312-5.679687l-46.71875-46.558594c-1.515626-1.503906-2.367188-3.546875-2.367188-5.679688 0-2.132812.851562-4.179687 2.367188-5.679687 1.5-1.515625 3.546874-2.367187 5.679687-2.367187s4.175781.851562 5.679687 2.367187l24 24c2.289063 2.308594 5.746094 3 8.746094 1.753906 3.003906-1.246093 4.953125-4.183593 4.933594-7.433593v-86.960938c0-4.417969 3.582031-8 8-8s8 3.582031 8 8v64c0 4.417969 3.582031 8 8 8s8-3.582031 8-8v-16c0-4.417969 3.582031-8 8-8s8 3.582031 8 8v16c0 4.417969 3.582031 8 8 8s8-3.582031 8-8v-16c0-4.417969 3.582031-8 8-8s8 3.582031 8 8v16c0 4.417969 3.582031 8 8 8s8-3.582031 8-8 3.582031-8 8-8 8 3.582031 8 8v80c0 4.417969 3.582031 8 8 8s8-3.582031 8-8v-80c0-13.253906-10.746094-24-24-24-3.035156.023438-6.042969.59375-8.878906 1.679688-2.847656-10.425782-12.3125-17.664063-23.121094-17.679688-5.910156.011719-11.605469 2.207031-16 6.160156-6.597656-5.710937-15.710938-7.535156-24-4.800781v-25.359375c0-13.253906-10.746094-24-24-24s-24 10.746094-24 24v67.679688l-10.398438-10.398438c-9.507812-9.023438-24.414062-9.023438-33.921874 0-9.359376 9.367188-9.359376 24.546875 0 33.917969l44.320312 44.320312v8.480469c.007812 1.253906.308594 2.484375.878906 3.601562l10.160156 20.398438h-11.039062c-4.417969 0-8 3.582031-8 8v48c0 4.417969 3.582031 8 8 8s8-3.582031 8-8v-40h128v32h-104c-4.417969 0-8 3.582031-8 8s3.582031 8 8 8h112c4.417969 0 8-3.582031 8-8v-48c0-4.417969-3.582031-8-8-8zm0 0"/><path d="m200.5 232c.023438 11.503906 3.175781 22.789062 9.121094 32.640625 1.4375 2.429687 4.054687 3.917969 6.878906 3.917969 1.4375 0 2.84375-.386719 4.078125-1.117188 3.800781-2.253906 5.054687-7.160156 2.800781-10.960937-4.476562-7.382813-6.855468-15.847657-6.878906-24.480469 0-26.507812 21.492188-48 48-48s48 21.492188 48 48c-.019531 4.636719-.71875 9.246094-2.078125 13.679688-1.28125 4.242187 1.117187 8.71875 5.359375 10s8.71875-1.117188 10-5.359376c1.761719-5.949218 2.675781-12.117187 2.71875-18.320312 0-35.347656-28.652344-64-64-64s-64 28.652344-64 64zm0 0"/><path d="m56.5 40c0 4.417969-3.582031 8-8 8s-8-3.582031-8-8 3.582031-8 8-8 8 3.582031 8 8zm0 0"/><path d="m88.5 40c0 4.417969-3.582031 8-8 8s-8-3.582031-8-8 3.582031-8 8-8 8 3.582031 8 8zm0 0"/><path d="m120.5 40c0 4.417969-3.582031 8-8 8s-8-3.582031-8-8 3.582031-8 8-8 8 3.582031 8 8zm0 0"/><path d="m168.5 32c-4.417969 0-8 3.582031-8 8s3.582031 8 8 8h208c4.417969 0 8-3.582031 8-8s-3.582031-8-8-8zm0 0"/><path d="m408.5 0h-400c-4.417969 0-8 3.582031-8 8v384c0 4.417969 3.582031 8 8 8h208c4.417969 0 8-3.582031 8-8s-3.582031-8-8-8h-200v-304h360c4.417969 0 8-3.582031 8-8s-3.582031-8-8-8h-360v-48h384v376c0 4.417969 3.582031 8 8 8s8-3.582031 8-8v-384c0-4.417969-3.582031-8-8-8zm0 0"/><path d="m194.578125 264c0-4.417969-3.578125-8-8-8h-138.078125v-48h138.078125c4.421875 0 8-3.582031 8-8s-3.578125-8-8-8h-146.078125c-4.417969 0-8 3.582031-8 8v64c0 4.417969 3.582031 8 8 8h146.078125c4.421875 0 8-3.582031 8-8zm0 0"/><path d="m136.5 224c-4.417969 0-8 3.582031-8 8s3.582031 8 8 8h40c4.417969 0 8-3.582031 8-8s-3.582031-8-8-8zm0 0"/><path d="m112.5 232c0 4.417969-3.582031 8-8 8s-8-3.582031-8-8 3.582031-8 8-8 8 3.582031 8 8zm0 0"/><path d="m80.5 232c0 4.417969-3.582031 8-8 8s-8-3.582031-8-8 3.582031-8 8-8 8 3.582031 8 8zm0 0"/><path d="m152.5 328v-32c0-4.417969-3.582031-8-8-8h-104c-4.417969 0-8 3.582031-8 8s3.582031 8 8 8h96v16h-96c-4.417969 0-8 3.582031-8 8s3.582031 8 8 8h104c4.417969 0 8-3.582031 8-8zm0 0"/><path d="m40.5 352c-4.417969 0-8 3.582031-8 8s3.582031 8 8 8h64c4.417969 0 8-3.582031 8-8s-3.582031-8-8-8zm0 0"/><path d="m272.5 136v-32c0-4.417969-3.582031-8-8-8s-8 3.582031-8 8v32c0 4.417969 3.582031 8 8 8s8-3.582031 8-8zm0 0"/><path d="m318.179688 157.679688 24-24c3.136718-3.136719 3.136718-8.222657 0-11.359376-3.136719-3.136718-8.222657-3.136718-11.359376 0l-24 24c-1.515624 1.5-2.367187 3.546876-2.367187 5.679688s.851563 4.179688 2.367187 5.679688c1.5 1.515624 3.546876 2.367187 5.679688 2.367187s4.179688-.851563 5.679688-2.367187zm0 0"/><path d="m198.179688 122.320312c-3.136719-3.136718-8.222657-3.136718-11.359376 0-3.136718 3.136719-3.136718 8.222657 0 11.359376l24 24c1.5 1.515624 3.546876 2.367187 5.679688 2.367187s4.179688-.851563 5.679688-2.367187c1.515624-1.5 2.367187-3.546876 2.367187-5.679688s-.851563-4.179688-2.367187-5.679688zm0 0"/><path d="m48.5 120h40c4.417969 0 8-3.582031 8-8s-3.582031-8-8-8h-40c-4.417969 0-8 3.582031-8 8s3.582031 8 8 8zm0 0"/><path d="m48.5 160h32c4.417969 0 8-3.582031 8-8s-3.582031-8-8-8h-32c-4.417969 0-8 3.582031-8 8s3.582031 8 8 8zm0 0"/></g></svg>